<mxfile host="65bd71144e">
    <diagram id="KZ4b2EZ963UrG6Z28Dus" name="Base">
        <mxGraphModel dx="1631" dy="926" grid="1" gridSize="10" guides="1" tooltips="1" connect="1" arrows="1" fold="1" page="0" pageScale="1" pageWidth="1600" pageHeight="900" background="none" math="0" shadow="0">
            <root>
                <mxCell id="0"/>
                <mxCell id="1" parent="0"/>
                <mxCell id="2" value="&lt;font style=&quot;font-size: 30px;&quot;&gt;16 : 9&amp;nbsp;&lt;/font&gt;" style="rounded=0;whiteSpace=wrap;html=1;fillColor=none;fontSize=30;" parent="1" vertex="1">
                    <mxGeometry width="1600" height="900" as="geometry"/>
                </mxCell>
                <mxCell id="4" value="navigator&amp;nbsp;(height: 5%;)" style="rounded=0;whiteSpace=wrap;html=1;fillColor=none;fontSize=30;" parent="1" vertex="1">
                    <mxGeometry x="1760" width="1600" height="45" as="geometry"/>
                </mxCell>
                <mxCell id="5" value="main (height: 95%;)" style="rounded=0;whiteSpace=wrap;html=1;fillColor=none;fontSize=30;strokeColor=default;sketch=1;curveFitting=1;jiggle=2;" parent="1" vertex="1">
                    <mxGeometry x="1760" y="45" width="1600" height="855" as="geometry"/>
                </mxCell>
                <mxCell id="13" value="content" style="rounded=0;whiteSpace=wrap;html=1;fillColor=none;fontSize=30;" parent="1" vertex="1">
                    <mxGeometry x="3520" y="130" width="1600" height="769.5" as="geometry"/>
                </mxCell>
                <mxCell id="14" value="title (height: 10%;)" style="rounded=0;whiteSpace=wrap;html=1;fillColor=none;fontSize=30;" parent="1" vertex="1">
                    <mxGeometry x="3520" y="45" width="1600" height="85.5" as="geometry"/>
                </mxCell>
                <mxCell id="16" value="left-content" style="rounded=0;whiteSpace=wrap;html=1;fillColor=none;fontSize=30;" parent="1" vertex="1">
                    <mxGeometry x="5280" y="130" width="800" height="769.5" as="geometry"/>
                </mxCell>
                <mxCell id="17" value="title (height: 10%;)" style="rounded=0;whiteSpace=wrap;html=1;fillColor=none;fontSize=30;" parent="1" vertex="1">
                    <mxGeometry x="5280" y="45" width="1600" height="85.5" as="geometry"/>
                </mxCell>
                <mxCell id="18" value="right-content" style="rounded=0;whiteSpace=wrap;html=1;fillColor=none;fontSize=30;" parent="1" vertex="1">
                    <mxGeometry x="6080" y="130.5" width="800" height="769.5" as="geometry"/>
                </mxCell>
                <mxCell id="19" value="&lt;font style=&quot;font-size: 20px;&quot;&gt;btn-medium&lt;br style=&quot;font-size: 20px;&quot;&gt;&lt;/font&gt;" style="rounded=0;whiteSpace=wrap;html=1;fillColor=none;strokeColor=default;fontSize=20;" parent="1" vertex="1">
                    <mxGeometry x="1760" y="1000" width="160" height="36" as="geometry"/>
                </mxCell>
                <mxCell id="20" value="height: 4vh;&lt;br&gt;width: 10vw;" style="text;html=1;strokeColor=none;fillColor=none;align=left;verticalAlign=top;whiteSpace=wrap;rounded=0;sketch=1;fontSize=20;" parent="1" vertex="1">
                    <mxGeometry x="1930" y="1000" width="150" height="80" as="geometry"/>
                </mxCell>
            </root>
        </mxGraphModel>
    </diagram>
</mxfile>